<?xml version="1.0" encoding="UTF-8" standalone="no"?>
<svg
   xmlns:dc="http://purl.org/dc/elements/1.1/"
   xmlns:cc="http://creativecommons.org/ns#"
   xmlns:rdf="http://www.w3.org/1999/02/22-rdf-syntax-ns#"
   xmlns:svg="http://www.w3.org/2000/svg"
   xmlns="http://www.w3.org/2000/svg"
   id="svg35035"
   version="1.1"
   viewBox="0 0 77.407143 77.407143"
   height="77.407143mm"
   width="77.407143mm">
  <defs
     id="defs35029" />
  <metadata
     id="metadata35032">
    <rdf:RDF>
      <cc:Work
         rdf:about="">
        <dc:format>image/svg+xml</dc:format>
        <dc:type
           rdf:resource="http://purl.org/dc/dcmitype/StillImage" />
        <dc:title></dc:title>
      </cc:Work>
    </rdf:RDF>
  </metadata>
  <g
     transform="translate(-21.772619,-8.5297552)"
     id="layer1">
    <g
       style="fill:#ee4c2c;fill-opacity:1"
       transform="translate(0,4.2333335)"
       id="g35728">
      <path
         style="color:#000000;font-style:normal;font-variant:normal;font-weight:normal;font-stretch:normal;font-size:medium;line-height:normal;font-family:sans-serif;font-variant-ligatures:normal;font-variant-position:normal;font-variant-caps:normal;font-variant-numeric:normal;font-variant-alternates:normal;font-feature-settings:normal;text-indent:0;text-align:start;text-decoration:none;text-decoration-line:none;text-decoration-style:solid;text-decoration-color:#000000;letter-spacing:normal;word-spacing:normal;text-transform:none;writing-mode:lr-tb;direction:ltr;text-orientation:mixed;dominant-baseline:auto;baseline-shift:baseline;text-anchor:start;white-space:normal;shape-padding:0;clip-rule:nonzero;display:inline;overflow:visible;visibility:visible;opacity:1;isolation:auto;mix-blend-mode:normal;color-interpolation:sRGB;color-interpolation-filters:linearRGB;solid-color:#000000;solid-opacity:1;vector-effect:none;fill:#ee4c2c;fill-opacity:1;fill-rule:nonzero;stroke:none;stroke-width:5.26499987;stroke-linecap:butt;stroke-linejoin:miter;stroke-miterlimit:4;stroke-dasharray:none;stroke-dashoffset:0;stroke-opacity:1;color-rendering:auto;image-rendering:auto;shape-rendering:auto;text-rendering:auto;enable-background:accumulate"
         d="m 63.222656,16.398438 c 0,0 -2.837855,2.594394 -6.019531,5.621093 -5.686981,5.371745 -12.207004,11.638067 -12.878906,18.40625 -0.407288,4.677009 1.542969,9.220703 1.542969,9.220703 l 0.08398,0.214844 0.11914,0.197266 c 1.593445,2.609681 3.461088,4.970691 6.001954,6.318359 l 0.117187,0.06055 0.121094,0.05078 c 0,0 4.471436,1.844398 10.189453,1.75 5.136933,-0.0848 8.0984,-0.146857 11.28125,-1.738281 1.45079,-0.725395 2.65588,-1.213063 3.884766,-2.027344 1.228885,-0.814281 2.37585,-2.062133 3.126953,-3.669922 1.248558,-2.672628 1.880079,-4.589545 1.568976,-9.308799 -0.202842,-3.076994 -0.717225,-4.787344 -2.119757,-7.343544 l -0.0039,-0.0078 c -0.986105,-1.738224 -2.165217,-3.369157 -3.52344,-4.835952 l -3.806641,3.636718 c 0,0 1.548193,1.645799 2.724609,3.753907 1.203123,2.410582 1.375485,3.519817 1.508681,5.175828 0.226826,2.820121 0.101785,4.085936 -1.119963,6.701172 -0.411464,0.880769 -0.643244,1.098659 -1.263672,1.509765 -0.620427,0.411106 -1.736084,0.909058 -3.332031,1.707032 -2.10882,1.054409 -3.886675,1.098955 -9.013672,1.183593 -4.392911,0.07252 -7.708603,-1.219251 -7.945312,-1.3125 -1.005862,-0.564471 -2.500117,-2.151728 -3.761719,-4.158203 -0.121075,-0.352675 -1.362303,-4.008213 -1.134766,-6.621094 1.065725,-6.39922 6.497578,-10.507232 11.261719,-15.048828 3.13708,-2.984274 2.445127,-2.430524 2.445127,-2.430524 z"
         id="path35118" />
      <ellipse
         style="fill:#ee4c2c;fill-opacity:1;stroke:#0000ff;stroke-width:0;stroke-linecap:round;stroke-linejoin:round;stroke-miterlimit:4;stroke-dasharray:none;stroke-dashoffset:0;stroke-opacity:1"
         id="path35663"
         cx="69.824158"
         cy="26.358105"
         rx="2.4722431"
         ry="2.5075607" />
    </g>
    <g
       style="fill:#757575;fill-opacity:1"
       transform="translate(-0.55372902,-21.663416)"
       id="g35671">
      <path
         style="fill:#757575;fill-opacity:1;stroke:#000000;stroke-width:0;stroke-linecap:butt;stroke-linejoin:miter;stroke-miterlimit:4;stroke-dasharray:none;stroke-opacity:1"
         d="m 34.010047,75.366744 h 9.153982 c 1.544112,-0.06068 1.888097,-0.489297 1.937703,-1.870887 v -2.539061 c 0.05541,-1.924588 0.499385,-2.434905 1.533444,-2.476296 1.150772,-0.04606 24.713412,-0.06277 25.527598,-0.06277 1.085431,0 1.737252,-0.05636 1.737252,1.716986 l 3e-6,1.22298 h 2.004519 v -1.537497 c 0.0037,-1.003733 0.398042,-1.335651 1.870887,-1.335651 l 4.142679,0.06682 c 1.07441,0.01013 1.282701,0.443582 1.269529,1.240463 v 1.899953 h 5.479026 c 2.529646,0 2.59218,4.977895 0.267267,4.977895 -4.708863,0 -2.973926,-0.01295 -4.944485,0.0057 -1.970559,0.01865 -2.001542,3.301728 0.176827,3.301728 0.711266,0 0.467525,-0.01468 1.834612,-0.01468 2.245173,0 2.445304,4.541839 -0.266083,4.574124 -1.282548,0.01527 -1.159577,0.05846 -1.17133,1.049621 -0.0087,0.736932 0,0 0.03019,1.730394 0.01293,0.741144 -0.735206,1.030289 -1.184473,1.055068 -0.471754,0.02602 -53.116132,0.07458 -54.844768,0.07458 -2.954903,0 -3.081873,-5.19505 0.233861,-5.19505 4.20269,0 10.39288,-0.01653 11.425774,-0.03341 1.445427,-0.02362 1.527027,-3.004757 -0.05802,-3.004757 -2.049187,0 0,0 -6.69054,0.03139 -2.691939,0.01263 -2.732795,-4.877668 0.534538,-4.877668 9e-6,0 4e-6,2.7e-5 4e-6,2.7e-5 z"
         id="path35665" />
      <circle
         style="fill:#757575;fill-opacity:1;stroke:#0000ff;stroke-width:0;stroke-linecap:round;stroke-linejoin:round;stroke-miterlimit:4;stroke-dasharray:none;stroke-dashoffset:0;stroke-opacity:1"
         id="path35667"
         cx="91.234001"
         cy="82.356773"
         r="2.2206101" />
    </g>
    <g
       style="fill:#ffffff;stroke:#ffffff"
       transform="translate(-0.15656298,-59.342355)"
       id="g35722">
      <path
         style="fill:#ffffff;stroke:#ffffff;stroke-width:0.99999994px;stroke-linecap:butt;stroke-linejoin:miter;stroke-opacity:1"
         d="m 177.94961,420.70766 -3.75234,0.0267 v 36.875 l 6.42773,0.0898 0.0898,-22.14453 11.66016,12.32226 11.91016,-12.32226 0.0898,22.14453 6.42773,-0.0898 v -36.875 L 207.11344,420.7076 192.5,438.85938 Z"
         transform="scale(0.26458333)"
         id="path35673" />
      <path
         style="fill:#ffffff;stroke:#ffffff;stroke-width:0.26458332px;stroke-linecap:butt;stroke-linejoin:miter;stroke-opacity:1"
         d="m 60.536547,111.3479 h 1.5368 v 9.67182 h -1.520094 z"
         id="path35678" />
      <path
         style="color:#000000;font-style:normal;font-variant:normal;font-weight:normal;font-stretch:normal;font-size:medium;line-height:normal;font-family:sans-serif;font-variant-ligatures:normal;font-variant-position:normal;font-variant-caps:normal;font-variant-numeric:normal;font-variant-alternates:normal;font-feature-settings:normal;text-indent:0;text-align:start;text-decoration:none;text-decoration-line:none;text-decoration-style:solid;text-decoration-color:#000000;letter-spacing:normal;word-spacing:normal;text-transform:none;writing-mode:lr-tb;direction:ltr;text-orientation:mixed;dominant-baseline:auto;baseline-shift:baseline;text-anchor:start;white-space:normal;shape-padding:0;clip-rule:nonzero;display:inline;overflow:visible;visibility:visible;opacity:1;isolation:auto;mix-blend-mode:normal;color-interpolation:sRGB;color-interpolation-filters:linearRGB;solid-color:#000000;solid-opacity:1;vector-effect:none;fill:#ffffff;fill-opacity:1;fill-rule:nonzero;stroke:#ffffff;stroke-width:0.30000001;stroke-linecap:butt;stroke-linejoin:miter;stroke-miterlimit:4;stroke-dasharray:none;stroke-dashoffset:0;stroke-opacity:1;color-rendering:auto;image-rendering:auto;shape-rendering:auto;text-rendering:auto;enable-background:accumulate"
         d="m 69.59375,111.24805 c -0.818669,-0.0327 -1.55098,0.3485 -2.091797,0.87109 l -0.04297,0.043 -0.03906,0.0488 c -0.734845,0.95874 -0.766246,2.12658 -0.273438,2.89648 0.492809,0.76991 1.265543,1.20925 1.988282,1.55469 1.02533,0.49008 1.250477,1.37682 0.970703,1.99414 -0.262557,0.43911 -0.588898,0.60632 -1.072266,0.60937 -0.494667,0.003 -1.435135,-0.5576 -1.973121,-1.02213 l -0.780785,1.59049 c 0.807268,0.69705 1.782783,1.10386 2.763672,1.09766 0.980889,-0.006 1.984979,-0.5036 2.533203,-1.46094 l 0.01367,-0.0234 0.01172,-0.0254 c 0.739338,-1.51233 -0.01232,-3.4321 -1.748046,-4.26172 -0.59901,-0.28631 -1.12439,-0.6695 -1.304688,-0.95118 -0.231544,-0.65981 0.310205,-1.31163 0.978516,-1.29687 0.309576,0.0124 0.799572,0.18786 1.490234,0.75195 l 1.054688,-1.29101 c -0.853877,-0.69739 -1.659847,-1.09233 -2.478516,-1.125 z"
         id="path35686" />
      <path
         style="color:#000000;font-style:normal;font-variant:normal;font-weight:normal;font-stretch:normal;font-size:medium;line-height:normal;font-family:sans-serif;font-variant-ligatures:normal;font-variant-position:normal;font-variant-caps:normal;font-variant-numeric:normal;font-variant-alternates:normal;font-feature-settings:normal;text-indent:0;text-align:start;text-decoration:none;text-decoration-line:none;text-decoration-style:solid;text-decoration-color:#000000;letter-spacing:normal;word-spacing:normal;text-transform:none;writing-mode:lr-tb;direction:ltr;text-orientation:mixed;dominant-baseline:auto;baseline-shift:baseline;text-anchor:start;white-space:normal;shape-padding:0;clip-rule:nonzero;display:inline;overflow:visible;visibility:visible;opacity:1;isolation:auto;mix-blend-mode:normal;color-interpolation:sRGB;color-interpolation-filters:linearRGB;solid-color:#000000;solid-opacity:1;vector-effect:none;fill:#ffffff;fill-opacity:1;fill-rule:nonzero;stroke:#ffffff;stroke-width:1.13385832;stroke-linecap:butt;stroke-linejoin:miter;stroke-miterlimit:4;stroke-dasharray:none;stroke-dashoffset:0;stroke-opacity:1;color-rendering:auto;image-rendering:auto;shape-rendering:auto;text-rendering:auto;enable-background:accumulate"
         d="m 281.69336,420.16992 v 6.66602 h 8.36328 v 30.32422 h 6.67383 v -30.32422 h 9.24805 v -6.66602 z"
         transform="scale(0.26458333)"
         id="path35709" />
    </g>
  </g>
</svg>
